<?xml version="1.0" encoding="utf-8"?>
<!-- Generator: Adobe Illustrator 16.0.4, SVG Export Plug-In . SVG Version: 6.00 Build 0)  -->
<!DOCTYPE svg PUBLIC "-//W3C//DTD SVG 1.1//EN" "http://www.w3.org/Graphics/SVG/1.1/DTD/svg11.dtd">
<svg version="1.1" xmlns="http://www.w3.org/2000/svg" xmlns:xlink="http://www.w3.org/1999/xlink" x="0px" y="0px" width="500px"
	 height="140px" viewBox="0 0 500 140" enable-background="new 0 0 500 140" xml:space="preserve">
<g id="Layer_1">
	<polygon fill="#ED9270" points="160.807,66.547 149.762,125.164 206.628,125.164 217.678,66.547 	"/>
	<path fill="#619963" d="M474.936,77.753"/>
	<g>
		<polyline fill="#74CEB7" points="172.853,7.928 21.656,7.928 10,66.547 161.808,66.547 172.853,7.928 		"/>
		<g>
			<polygon fill="#EF6F56" points="216.677,66.547 205.627,125.164 475.483,125.164 486.143,66.547 			"/>
		</g>
	</g>
	<polygon fill="#A4C8A6" points="227.594,7.928 171.852,7.928 160.807,66.547 216.677,66.547 	"/>
</g>
<g id="Layer_2">
	<g>
		<path fill="#FFFFFF" d="M40.117,37.679h-6.274l-4.106,23.498h-3.821l4.106-23.498h-5.646l0.627-3.194h5.532l1.255-7.243
			c0.228-1.331,0.589-2.595,1.083-3.793c0.494-1.198,1.15-2.243,1.968-3.137c0.817-0.893,1.796-1.606,2.938-2.139
			c1.141-0.532,2.471-0.799,3.992-0.799c0.494,0,1.007,0.029,1.54,0.085c0.532,0.057,1.064,0.163,1.597,0.314l-0.913,3.365
			c-0.798-0.228-1.692-0.342-2.681-0.342c-0.912,0-1.702,0.171-2.367,0.513c-0.666,0.342-1.217,0.827-1.654,1.454
			c-0.438,0.627-0.799,1.36-1.084,2.196c-0.285,0.837-0.504,1.731-0.656,2.681l-1.198,6.844h6.388L40.117,37.679z"/>
		<path fill="#FFFFFF" d="M52.807,61.862c-1.788,0-3.441-0.285-4.962-0.855c-1.521-0.57-2.823-1.359-3.907-2.367
			c-1.083-1.007-1.93-2.224-2.538-3.65c-0.608-1.426-0.913-2.995-0.913-4.706c0-2.243,0.39-4.363,1.169-6.359
			c0.779-1.996,1.872-3.745,3.279-5.247c1.406-1.501,3.08-2.689,5.019-3.564c1.939-0.875,4.068-1.312,6.388-1.312
			c1.825,0,3.488,0.276,4.991,0.827c1.501,0.552,2.794,1.34,3.878,2.367c1.083,1.027,1.929,2.244,2.538,3.65
			c0.607,1.407,0.912,2.966,0.912,4.677c0,2.281-0.39,4.43-1.169,6.445c-0.78,2.016-1.873,3.764-3.279,5.247
			c-1.407,1.483-3.08,2.662-5.019,3.536C57.255,61.424,55.125,61.862,52.807,61.862z M64.67,45.572c0-1.219-0.19-2.354-0.568-3.401
			c-0.38-1.048-0.938-1.954-1.678-2.716c-0.74-0.763-1.64-1.364-2.701-1.802c-1.062-0.438-2.256-0.658-3.583-0.658
			c-1.668,0-3.204,0.353-4.606,1.058c-1.403,0.706-2.617,1.658-3.641,2.859c-1.024,1.202-1.83,2.593-2.417,4.174
			c-0.588,1.583-0.881,3.25-0.881,5.004c0,1.22,0.189,2.354,0.569,3.402c0.378,1.048,0.938,1.954,1.677,2.716
			c0.739,0.763,1.631,1.363,2.673,1.801s2.227,0.658,3.555,0.658c1.706,0,3.27-0.352,4.692-1.058
			c1.421-0.705,2.644-1.648,3.668-2.83c1.023-1.182,1.82-2.564,2.389-4.146C64.385,49.051,64.67,47.364,64.67,45.572z"/>
		<path fill="#FFFFFF" d="M77.479,37.565c0.171-1.141,0.294-2.167,0.371-3.08h3.65c-0.077,0.723-0.171,1.521-0.285,2.396
			c-0.114,0.875-0.228,1.597-0.342,2.167h0.114c0.988-1.559,2.243-2.823,3.764-3.792c1.521-0.97,3.231-1.455,5.133-1.455
			c0.494,0,0.931,0.02,1.312,0.057c0.38,0.039,0.779,0.114,1.198,0.228l-0.913,3.65c-0.19-0.076-0.542-0.151-1.055-0.228
			c-0.513-0.076-1.036-0.114-1.568-0.114c-1.026,0-2.035,0.191-3.023,0.57c-0.989,0.38-1.892,0.979-2.709,1.796
			c-0.818,0.818-1.54,1.864-2.167,3.137c-0.627,1.274-1.094,2.804-1.397,4.591l-2.396,13.688h-3.821l3.65-20.817
			C77.146,39.638,77.308,38.706,77.479,37.565z"/>
		<path fill="#FFFFFF" d="M99.397,34.485l1.825,21.673h0.114l11.292-21.673h3.65l3.137,21.673h0.171l10.665-21.673h4.106
			l-13.631,26.692h-4.106l-3.023-21.616h-0.114l-11.122,21.616h-4.049l-2.909-26.692H99.397z"/>
		<path fill="#FFFFFF" d="M154.686,44.809c0.114-0.646,0.189-1.15,0.228-1.512c0.037-0.361,0.057-0.693,0.057-0.998
			c0-1.939-0.552-3.308-1.654-4.106c-1.103-0.798-2.643-1.198-4.62-1.198c-1.597,0-3.137,0.314-4.62,0.941s-2.719,1.378-3.708,2.253
			l-1.711-2.567c1.292-1.141,2.889-2.062,4.791-2.766c1.901-0.703,3.783-1.055,5.646-1.055c1.254,0,2.461,0.143,3.622,0.428
			c1.159,0.285,2.167,0.742,3.022,1.369c0.856,0.627,1.54,1.426,2.053,2.395c0.514,0.97,0.77,2.139,0.77,3.508
			c0,0.342-0.02,0.808-0.057,1.397c-0.039,0.59-0.096,1.075-0.171,1.454l-1.939,10.836c-0.191,1.027-0.342,2.092-0.457,3.194
			c-0.114,1.103-0.171,2.034-0.171,2.794h-3.422c0-0.646,0.028-1.349,0.085-2.11c0.057-0.76,0.143-1.501,0.256-2.224h-0.114
			c-0.761,0.875-1.521,1.625-2.281,2.253c-0.761,0.627-1.55,1.131-2.367,1.511c-0.818,0.38-1.692,0.656-2.624,0.827
			c-0.932,0.171-1.949,0.256-3.051,0.256c-0.913,0-1.845-0.114-2.795-0.342c-0.951-0.228-1.816-0.617-2.595-1.169
			c-0.78-0.551-1.426-1.264-1.939-2.139c-0.513-0.875-0.77-1.958-0.77-3.251c0-2.129,0.607-3.85,1.825-5.162
			c1.217-1.312,2.804-2.319,4.763-3.023c1.958-0.703,4.153-1.178,6.587-1.426C149.761,44.932,152.213,44.809,154.686,44.809z
			 M153.259,47.717c-1.711,0-3.46,0.085-5.247,0.256c-1.788,0.171-3.413,0.495-4.876,0.97c-1.464,0.476-2.662,1.141-3.593,1.996
			c-0.932,0.855-1.397,1.987-1.397,3.394c0,0.837,0.151,1.531,0.456,2.082c0.304,0.551,0.713,0.989,1.227,1.312
			c0.513,0.324,1.102,0.552,1.768,0.685c0.665,0.134,1.34,0.2,2.024,0.2c1.369,0,2.624-0.228,3.764-0.685
			c1.141-0.456,2.148-1.083,3.023-1.882c0.875-0.798,1.597-1.72,2.167-2.766c0.57-1.045,0.969-2.157,1.198-3.336l0.399-2.224
			H153.259z"/>
		<path fill="#FFFFFF" d="M170.056,37.565c0.171-1.141,0.294-2.167,0.371-3.08h3.65c-0.077,0.723-0.171,1.521-0.285,2.396
			c-0.114,0.875-0.228,1.597-0.342,2.167h0.114c0.988-1.559,2.243-2.823,3.764-3.792c1.521-0.97,3.231-1.455,5.133-1.455
			c0.494,0,0.931,0.02,1.312,0.057c0.38,0.039,0.779,0.114,1.198,0.228l-0.913,3.65c-0.19-0.076-0.542-0.151-1.055-0.228
			c-0.513-0.076-1.036-0.114-1.568-0.114c-1.026,0-2.035,0.191-3.023,0.57c-0.989,0.38-1.892,0.979-2.709,1.796
			c-0.818,0.818-1.54,1.864-2.167,3.137c-0.627,1.274-1.094,2.804-1.397,4.591l-2.396,13.688h-3.821l3.65-20.817
			C169.723,39.638,169.885,38.706,170.056,37.565z"/>
		<path fill="#FFFFFF" d="M185.939,50.341c0-2.281,0.39-4.429,1.169-6.445c0.779-2.015,1.872-3.764,3.279-5.247
			c1.406-1.483,3.07-2.661,4.991-3.536c1.919-0.875,4.001-1.312,6.245-1.312c1.939,0,3.754,0.438,5.447,1.312
			c1.691,0.875,2.975,2.167,3.85,3.878h0.114l3.707-20.932h3.821l-7.643,43.118h-3.821l0.799-4.392h-0.114
			c-0.875,1.369-2.187,2.558-3.936,3.564c-1.749,1.007-3.707,1.512-5.875,1.512c-1.825,0-3.47-0.276-4.933-0.827
			c-1.464-0.551-2.729-1.34-3.793-2.367c-1.065-1.027-1.882-2.243-2.453-3.65C186.224,53.611,185.939,52.052,185.939,50.341z
			 M189.932,50.09c0,1.22,0.18,2.345,0.542,3.374c0.361,1.029,0.903,1.935,1.625,2.716c0.722,0.781,1.597,1.391,2.624,1.83
			c1.027,0.438,2.225,0.658,3.593,0.658c1.673,0,3.231-0.343,4.677-1.029c1.445-0.687,2.699-1.629,3.764-2.831
			c1.064-1.201,1.901-2.583,2.51-4.146c0.608-1.563,0.913-3.24,0.913-5.032c0-1.258-0.2-2.411-0.599-3.458
			c-0.399-1.048-0.979-1.963-1.739-2.745c-0.761-0.781-1.674-1.382-2.738-1.802c-1.065-0.419-2.244-0.629-3.536-0.629
			c-1.749,0-3.336,0.343-4.762,1.029c-1.426,0.687-2.652,1.621-3.679,2.803c-1.027,1.182-1.816,2.564-2.367,4.146
			C190.207,46.555,189.932,48.261,189.932,50.09z"/>
	</g>
	<g>
		<path fill="#FFFFFF" d="M165.594,86.387c0.418-0.685,0.969-1.33,1.654-1.939c0.685-0.607,1.455-1.141,2.31-1.597
			s1.777-0.817,2.766-1.084c0.988-0.265,2.015-0.398,3.08-0.398c1.825,0,3.469,0.276,4.934,0.826
			c1.463,0.552,2.728,1.341,3.792,2.367c1.064,1.026,1.882,2.244,2.453,3.65c0.57,1.407,0.855,2.966,0.855,4.677
			c0,2.281-0.399,4.43-1.198,6.445c-0.798,2.016-1.892,3.764-3.279,5.247c-1.389,1.482-3.042,2.662-4.962,3.537
			c-1.92,0.873-4.002,1.311-6.245,1.311c-1.939,0-3.755-0.438-5.447-1.311c-1.692-0.875-2.976-2.168-3.85-3.879h-0.114
			l-3.251,18.193h-3.821l7.186-40.38h3.821l-0.798,4.335H165.594z M183.445,93.139c0-1.182-0.181-2.296-0.542-3.344
			c-0.362-1.048-0.904-1.964-1.625-2.745c-0.723-0.781-1.597-1.392-2.624-1.83c-1.026-0.438-2.224-0.658-3.593-0.658
			c-1.673,0-3.232,0.344-4.677,1.029c-1.445,0.687-2.7,1.63-3.764,2.831c-1.065,1.201-1.902,2.593-2.509,4.175
			c-0.609,1.582-0.913,3.25-0.913,5.004c0,1.258,0.2,2.411,0.599,3.459c0.399,1.048,0.979,1.962,1.74,2.746
			c0.76,0.781,1.663,1.381,2.709,1.801c1.045,0.42,2.233,0.629,3.564,0.629c1.749,0,3.337-0.344,4.763-1.029
			s2.652-1.621,3.679-2.802c1.026-1.182,1.815-2.563,2.367-4.146C183.169,96.675,183.445,94.97,183.445,93.139z"/>
		<path fill="#FFFFFF" d="M196.078,85.132c0.171-1.141,0.294-2.167,0.371-3.08h3.65c-0.077,0.724-0.171,1.521-0.285,2.396
			c-0.114,0.876-0.228,1.598-0.342,2.168h0.114c0.988-1.559,2.243-2.823,3.764-3.793c1.521-0.97,3.231-1.454,5.133-1.454
			c0.494,0,0.931,0.02,1.312,0.057c0.38,0.038,0.779,0.114,1.198,0.229l-0.913,3.649c-0.19-0.075-0.542-0.151-1.055-0.228
			c-0.513-0.076-1.036-0.114-1.568-0.114c-1.026,0-2.035,0.19-3.023,0.57c-0.989,0.381-1.892,0.979-2.709,1.797
			c-0.818,0.817-1.54,1.863-2.167,3.137c-0.627,1.274-1.094,2.805-1.397,4.591l-2.396,13.689h-3.821l3.65-20.818
			C195.745,87.206,195.907,86.273,196.078,85.132z"/>
		<path fill="#FFFFFF" d="M225.421,109.429c-1.788,0-3.441-0.285-4.962-0.855c-1.521-0.57-2.823-1.359-3.907-2.367
			c-1.083-1.006-1.93-2.225-2.538-3.65c-0.608-1.425-0.913-2.994-0.913-4.705c0-2.243,0.39-4.363,1.169-6.359
			c0.779-1.996,1.872-3.744,3.279-5.247c1.406-1.502,3.08-2.689,5.019-3.564c1.939-0.874,4.068-1.312,6.388-1.312
			c1.825,0,3.488,0.276,4.991,0.826c1.501,0.552,2.794,1.341,3.878,2.367c1.083,1.026,1.929,2.244,2.538,3.65
			c0.607,1.407,0.912,2.966,0.912,4.677c0,2.281-0.39,4.43-1.169,6.445c-0.78,2.016-1.873,3.764-3.279,5.247
			c-1.407,1.482-3.08,2.662-5.019,3.537C229.87,108.991,227.74,109.429,225.421,109.429z M237.284,93.139
			c0-1.219-0.19-2.354-0.568-3.401c-0.38-1.048-0.938-1.953-1.678-2.716s-1.64-1.363-2.701-1.802
			c-1.062-0.438-2.256-0.658-3.583-0.658c-1.668,0-3.204,0.354-4.606,1.058c-1.403,0.706-2.617,1.659-3.641,2.86
			s-1.83,2.592-2.417,4.174c-0.588,1.583-0.881,3.25-0.881,5.004c0,1.22,0.189,2.354,0.569,3.402
			c0.378,1.048,0.938,1.953,1.677,2.716c0.739,0.764,1.631,1.363,2.673,1.801c1.042,0.439,2.227,0.658,3.555,0.658
			c1.706,0,3.27-0.352,4.692-1.059c1.421-0.705,2.644-1.648,3.668-2.83c1.023-1.182,1.82-2.564,2.389-4.146
			C236.999,96.619,237.284,94.932,237.284,93.139z"/>
		<path fill="#FFFFFF" d="M255.25,86.387c0.418-0.685,0.969-1.33,1.654-1.939c0.684-0.607,1.453-1.141,2.309-1.597
			s1.777-0.817,2.768-1.084c0.988-0.265,2.014-0.398,3.08-0.398c1.824,0,3.469,0.276,4.932,0.826
			c1.465,0.552,2.729,1.341,3.793,2.367s1.883,2.244,2.453,3.65c0.57,1.407,0.855,2.966,0.855,4.677c0,2.281-0.398,4.43-1.197,6.445
			s-1.893,3.764-3.279,5.247c-1.389,1.482-3.043,2.662-4.963,3.537c-1.92,0.873-4.002,1.311-6.244,1.311
			c-1.939,0-3.756-0.438-5.447-1.311c-1.693-0.875-2.977-2.168-3.85-3.879h-0.115l-3.25,18.193h-3.821l7.187-40.38h3.82
			l-0.799,4.335H255.25z M273.102,93.139c0-1.182-0.182-2.296-0.541-3.344c-0.363-1.048-0.904-1.964-1.627-2.745
			s-1.596-1.392-2.623-1.83s-2.225-0.658-3.594-0.658c-1.674,0-3.232,0.344-4.676,1.029c-1.445,0.687-2.701,1.63-3.764,2.831
			c-1.066,1.201-1.902,2.593-2.51,4.175c-0.609,1.582-0.914,3.25-0.914,5.004c0,1.258,0.201,2.411,0.6,3.459s0.979,1.962,1.74,2.746
			c0.76,0.781,1.662,1.381,2.709,1.801c1.045,0.42,2.232,0.629,3.564,0.629c1.748,0,3.336-0.344,4.762-1.029s2.652-1.621,3.68-2.802
			c1.025-1.182,1.814-2.563,2.367-4.146C272.826,96.675,273.102,94.97,273.102,93.139z"/>
		<path fill="#FFFFFF" d="M302.814,92.375c0.115-0.646,0.191-1.149,0.229-1.511s0.057-0.693,0.057-0.998
			c0-1.939-0.551-3.309-1.652-4.106c-1.104-0.799-2.645-1.198-4.621-1.198c-1.596,0-3.137,0.313-4.619,0.941
			c-1.482,0.627-2.719,1.379-3.707,2.253l-1.711-2.566c1.291-1.141,2.889-2.062,4.791-2.767c1.9-0.703,3.783-1.055,5.646-1.055
			c1.254,0,2.461,0.143,3.621,0.428s2.168,0.741,3.023,1.368c0.855,0.628,1.539,1.426,2.053,2.396s0.77,2.139,0.77,3.508
			c0,0.342-0.02,0.809-0.057,1.397c-0.039,0.59-0.096,1.074-0.172,1.454l-1.939,10.837c-0.189,1.025-0.342,2.09-0.455,3.193
			c-0.115,1.104-0.172,2.035-0.172,2.795h-3.422c0-0.646,0.029-1.35,0.086-2.111c0.057-0.76,0.143-1.502,0.256-2.225h-0.113
			c-0.762,0.877-1.521,1.627-2.281,2.254c-0.762,0.627-1.551,1.131-2.367,1.512c-0.818,0.381-1.691,0.656-2.623,0.826
			c-0.932,0.172-1.949,0.258-3.053,0.258c-0.912,0-1.844-0.115-2.793-0.344c-0.951-0.227-1.816-0.617-2.596-1.168
			s-1.426-1.264-1.939-2.139s-0.77-1.959-0.77-3.251c0-2.129,0.607-3.85,1.824-5.162c1.217-1.312,2.805-2.318,4.764-3.022
			c1.957-0.703,4.152-1.178,6.586-1.426C297.891,92.5,300.344,92.375,302.814,92.375z M301.389,95.285
			c-1.711,0-3.459,0.086-5.246,0.257s-3.414,0.494-4.877,0.97c-1.465,0.476-2.662,1.141-3.594,1.996s-1.396,1.987-1.396,3.394
			c0,0.836,0.152,1.53,0.457,2.081c0.303,0.553,0.713,0.99,1.225,1.312c0.514,0.324,1.104,0.551,1.77,0.684
			c0.664,0.135,1.34,0.201,2.023,0.201c1.369,0,2.625-0.229,3.766-0.686c1.141-0.455,2.146-1.084,3.021-1.881
			c0.875-0.799,1.598-1.72,2.168-2.767c0.57-1.045,0.969-2.157,1.197-3.336l0.4-2.225H301.389z"/>
		<path fill="#FFFFFF" d="M313.766,114.333c0.949,1.369,2.291,2.5,4.021,3.395c1.729,0.893,3.621,1.34,5.674,1.34
			c1.9,0,3.537-0.275,4.906-0.826c1.367-0.553,2.508-1.312,3.422-2.281c0.912-0.971,1.633-2.092,2.166-3.365
			c0.533-1.275,0.932-2.633,1.199-4.078l0.969-5.076h-0.113c-1.219,1.711-2.701,3.023-4.449,3.936
			c-1.75,0.912-3.65,1.369-5.703,1.369c-1.826,0-3.471-0.295-4.934-0.885c-1.465-0.588-2.709-1.416-3.736-2.48
			s-1.816-2.301-2.367-3.708c-0.551-1.406-0.826-2.946-0.826-4.62c0-2.167,0.389-4.2,1.168-6.103c0.779-1.9,1.863-3.564,3.252-4.99
			c1.387-1.426,3.031-2.547,4.934-3.365c1.9-0.817,3.973-1.226,6.217-1.226c0.949,0,1.9,0.113,2.852,0.342
			c0.949,0.229,1.834,0.57,2.652,1.026c0.816,0.457,1.549,1.018,2.195,1.683c0.646,0.666,1.16,1.417,1.539,2.253h0.115l0.855-4.62
			h3.764l-4.676,26.464c-0.268,1.445-0.666,2.984-1.199,4.619c-0.531,1.635-1.359,3.137-2.48,4.506s-2.615,2.51-4.477,3.422
			c-1.863,0.912-4.277,1.369-7.244,1.369c-2.623,0-5-0.477-7.129-1.426c-2.129-0.951-3.84-2.262-5.133-3.936L313.766,114.333z
			 M317.93,97.11c0,1.141,0.189,2.225,0.57,3.251c0.379,1.026,0.932,1.93,1.654,2.708c0.721,0.779,1.615,1.389,2.68,1.826
			s2.281,0.654,3.65,0.654c1.711,0,3.279-0.332,4.705-0.998c1.426-0.664,2.652-1.568,3.68-2.708
			c1.025-1.141,1.824-2.461,2.395-3.964c0.57-1.501,0.855-3.089,0.855-4.762c0-1.179-0.199-2.291-0.6-3.337
			c-0.398-1.045-0.969-1.948-1.711-2.709c-0.74-0.76-1.645-1.369-2.709-1.825s-2.262-0.685-3.592-0.685
			c-1.711,0-3.279,0.305-4.707,0.913c-1.426,0.608-2.643,1.454-3.648,2.538c-1.008,1.083-1.797,2.405-2.367,3.964
			C318.215,93.537,317.93,95.248,317.93,97.11z"/>
		<path fill="#FFFFFF" d="M369.031,92.375c0.115-0.646,0.191-1.149,0.229-1.511s0.057-0.693,0.057-0.998
			c0-1.939-0.551-3.309-1.652-4.106c-1.104-0.799-2.645-1.198-4.621-1.198c-1.596,0-3.137,0.313-4.619,0.941
			c-1.482,0.627-2.719,1.379-3.707,2.253l-1.711-2.566c1.291-1.141,2.889-2.062,4.791-2.767c1.9-0.703,3.783-1.055,5.646-1.055
			c1.254,0,2.461,0.143,3.621,0.428s2.168,0.741,3.023,1.368c0.855,0.628,1.539,1.426,2.053,2.396s0.77,2.139,0.77,3.508
			c0,0.342-0.02,0.809-0.057,1.397c-0.039,0.59-0.096,1.074-0.172,1.454l-1.939,10.837c-0.189,1.025-0.342,2.09-0.455,3.193
			c-0.115,1.104-0.172,2.035-0.172,2.795h-3.422c0-0.646,0.029-1.35,0.086-2.111c0.057-0.76,0.143-1.502,0.256-2.225h-0.113
			c-0.762,0.877-1.521,1.627-2.281,2.254c-0.762,0.627-1.551,1.131-2.367,1.512c-0.818,0.381-1.691,0.656-2.623,0.826
			c-0.932,0.172-1.949,0.258-3.053,0.258c-0.912,0-1.844-0.115-2.793-0.344c-0.951-0.227-1.816-0.617-2.596-1.168
			s-1.426-1.264-1.939-2.139s-0.77-1.959-0.77-3.251c0-2.129,0.607-3.85,1.824-5.162c1.217-1.312,2.805-2.318,4.764-3.022
			c1.957-0.703,4.152-1.178,6.586-1.426C364.107,92.5,366.561,92.375,369.031,92.375z M367.605,95.285
			c-1.711,0-3.459,0.086-5.246,0.257s-3.414,0.494-4.877,0.97c-1.465,0.476-2.662,1.141-3.594,1.996s-1.396,1.987-1.396,3.394
			c0,0.836,0.152,1.53,0.457,2.081c0.303,0.553,0.713,0.99,1.225,1.312c0.514,0.324,1.104,0.551,1.77,0.684
			c0.664,0.135,1.34,0.201,2.023,0.201c1.369,0,2.625-0.229,3.766-0.686c1.141-0.455,2.146-1.084,3.021-1.881
			c0.875-0.799,1.598-1.72,2.168-2.767c0.57-1.045,0.969-2.157,1.197-3.336l0.4-2.225H367.605z"/>
		<path fill="#FFFFFF" d="M394.355,85.247h-7.244l-2.795,15.671c-0.113,0.687-0.17,1.297-0.17,1.83c0,1.258,0.303,2.098,0.912,2.518
			c0.607,0.418,1.406,0.629,2.395,0.629c0.533,0,1.121-0.082,1.77-0.244c0.645-0.162,1.141-0.385,1.482-0.67l-0.457,3.309
			c-0.494,0.268-1.131,0.465-1.91,0.6c-0.779,0.133-1.607,0.199-2.48,0.199c-0.646,0-1.303-0.076-1.969-0.229
			c-0.666-0.15-1.273-0.428-1.824-0.826c-0.553-0.4-1.008-0.941-1.369-1.627c-0.361-0.684-0.541-1.559-0.541-2.623
			c0-0.531,0.057-1.141,0.17-1.825l2.967-16.711h-5.533l0.627-3.194h5.42l1.311-7.528h3.822l-1.312,7.528h7.357L394.355,85.247z"/>
		<path fill="#FFFFFF" d="M400.514,108.745h-3.82l4.732-26.693h3.822L400.514,108.745z M407.529,71.729
			c0,0.761-0.256,1.408-0.77,1.939c-0.514,0.533-1.15,0.799-1.91,0.799c-0.725,0-1.342-0.229-1.855-0.685
			c-0.512-0.456-0.77-1.083-0.77-1.882c0-0.799,0.275-1.463,0.828-1.997c0.551-0.532,1.188-0.798,1.91-0.798
			c0.721,0,1.33,0.238,1.824,0.713C407.281,70.295,407.529,70.931,407.529,71.729z"/>
		<path fill="#FFFFFF" d="M423.1,109.429c-1.787,0-3.441-0.285-4.961-0.855c-1.521-0.57-2.824-1.359-3.908-2.367
			c-1.084-1.006-1.93-2.225-2.537-3.65c-0.609-1.425-0.912-2.994-0.912-4.705c0-2.243,0.389-4.363,1.168-6.359
			s1.873-3.744,3.279-5.247c1.406-1.502,3.08-2.689,5.02-3.564c1.939-0.874,4.068-1.312,6.389-1.312c1.824,0,3.486,0.276,4.99,0.826
			c1.502,0.552,2.795,1.341,3.877,2.367c1.084,1.026,1.93,2.244,2.539,3.65c0.607,1.407,0.912,2.966,0.912,4.677
			c0,2.281-0.391,4.43-1.17,6.445s-1.873,3.764-3.279,5.247s-3.078,2.662-5.018,3.537
			C427.549,108.991,425.418,109.429,423.1,109.429z M434.963,93.139c0-1.219-0.189-2.354-0.568-3.401s-0.939-1.953-1.678-2.716
			c-0.74-0.763-1.641-1.363-2.701-1.802c-1.062-0.438-2.258-0.658-3.584-0.658c-1.668,0-3.203,0.354-4.605,1.058
			c-1.404,0.706-2.617,1.659-3.641,2.86s-1.83,2.592-2.418,4.174c-0.588,1.583-0.881,3.25-0.881,5.004
			c0,1.22,0.189,2.354,0.568,3.402s0.938,1.953,1.678,2.716s1.631,1.363,2.674,1.801c1.043,0.439,2.227,0.658,3.555,0.658
			c1.705,0,3.27-0.352,4.691-1.059c1.422-0.705,2.645-1.648,3.668-2.83c1.023-1.182,1.82-2.564,2.389-4.146
			S434.963,94.932,434.963,93.139z"/>
		<path fill="#FFFFFF" d="M453.1,82.052c-0.076,0.724-0.172,1.521-0.285,2.396c-0.113,0.876-0.229,1.598-0.342,2.168h0.113
			c1.029-1.635,2.355-2.918,3.977-3.85s3.346-1.397,5.178-1.397c2.898,0,5.158,0.732,6.779,2.195
			c1.621,1.464,2.432,3.451,2.432,5.96c0,0.456-0.029,0.913-0.086,1.369s-0.123,0.951-0.199,1.482l-2.949,16.37h-3.838l2.623-14.772
			c0.229-1.179,0.344-2.301,0.344-3.365c0-1.862-0.438-3.337-1.312-4.42c-0.875-1.084-2.416-1.626-4.619-1.626
			c-1.027,0-2.055,0.21-3.08,0.628c-1.027,0.419-1.988,1.064-2.881,1.938c-0.895,0.875-1.682,1.968-2.367,3.279
			c-0.684,1.312-1.178,2.862-1.482,4.648l-2.396,13.689h-3.82l3.65-20.818c0.15-0.722,0.314-1.654,0.484-2.795
			c0.172-1.141,0.295-2.167,0.371-3.08H453.1z"/>
	</g>
</g>
</svg>
